<?xml version="1.0" encoding="UTF-8" standalone="no"?>
<!DOCTYPE svg PUBLIC "-//W3C//DTD SVG 1.1//EN" "http://www.w3.org/Graphics/SVG/1.1/DTD/svg11.dtd">
<svg width="100%" height="100%" viewBox="0 0 533 111" version="1.1" xmlns="http://www.w3.org/2000/svg" xmlns:xlink="http://www.w3.org/1999/xlink" xml:space="preserve" xmlns:serif="http://www.serif.com/" style="fill-rule:evenodd;clip-rule:evenodd;stroke-linejoin:round;stroke-miterlimit:2;">
    <g transform="matrix(1,0,0,1,-129.31,-93.26)">
        <path d="M253.75,187.94C252.77,187.94 247.65,194.89 238.62,194.89C225.2,194.89 208.85,185.5 192.14,177.32C199.09,168.54 205.56,158.41 211.66,148.41C245.82,146.95 275.1,125.35 275.1,106.44C275.1,98.27 269.24,93.26 259.48,93.26C239.59,93.26 224.47,118.88 208.49,144.86C183.85,144.49 172.01,134.61 172.01,122.05C172.01,111.31 182.87,104.6 190.68,104.6C196.54,104.6 200.07,106.43 200.44,106.43C200.93,106.43 201.54,105.82 201.54,105.09C201.54,104.48 197.39,102.16 190.32,102.16C180.68,102.16 167.63,108.99 167.63,122.66C167.63,135.96 181.05,148.03 206.3,148.52C200.57,158.04 194.59,167.31 188.24,175.36C176.65,169.99 165.06,165.48 154.08,165.48C141.88,165.48 129.31,173.17 129.31,185.49C129.31,197.08 138.83,203.55 150.17,203.55C165.54,203.55 178.35,193.91 189.7,180.37C207.15,188.79 224.35,199.04 238.13,199.04C248.13,199.04 254.84,189.89 254.84,189.04C254.85,188.67 254.12,187.94 253.75,187.94ZM260.83,96.81C266.69,96.81 271.08,100.47 271.08,105.59C271.08,123.52 243.51,143.16 213.99,144.75C229.11,119.99 243.26,96.81 260.83,96.81ZM150.42,199.78C141.64,199.78 133.34,193.92 133.34,185.51C133.34,175.75 143.95,169.16 153.35,169.16C163.48,169.16 174.58,173.31 185.8,178.55C175.43,190.99 163.96,199.78 150.42,199.78Z" style="fill:white;fill-rule:nonzero;"/>
        <path d="M377.95,137.68C379.17,137.68 381.12,134.63 384.05,132.07C386.12,130.24 388.44,128.9 388.44,127.43C388.44,125.72 386.49,123.4 384.9,123.4C382.7,123.4 376.73,134.62 376.73,136.58C376.73,137.19 377.34,137.68 377.95,137.68Z" style="fill:white;fill-rule:nonzero;"/>
        <path d="M427.85,122.68C427.36,122.68 426.87,123.17 426.87,123.17C426.87,123.17 418.33,129.51 414.06,129.51C410.89,129.51 408.33,123.65 408.33,123.65C408.33,123.65 407.96,122.67 407.35,122.67C406.5,122.67 405.89,123.16 405.89,123.89C405.89,124.5 406.26,125.35 406.26,125.35C406.26,125.35 409.43,133.04 414.07,133.04C419.68,133.04 428.22,125.48 428.22,125.48C428.22,125.48 429.2,124.63 429.2,124.02C429.19,123.16 428.58,122.68 427.85,122.68Z" style="fill:white;fill-rule:nonzero;"/>
        <path d="M426.63,158.18C426.14,158.18 425.53,158.91 425.53,158.91C421.14,164.03 416.26,166.6 411.26,167.94C411.38,167.57 411.38,167.21 411.38,166.72C411.38,158.67 407.23,155.25 407.23,149.76C407.23,145.12 412.48,141.1 412.48,139.76C412.48,138.91 411.38,137.32 410.04,137.32C408.58,137.32 406.5,140.37 404.43,144.15C402.24,148.04 398.59,153.75 393.98,158.86C393.96,158.89 393.94,158.91 393.94,158.91C387.6,165.99 383.08,168.67 379.54,168.67C376.86,168.67 374.66,166.84 374.66,162.45C374.66,158.3 377.1,155.37 377.1,154.52C377.1,153.54 376.12,152.57 375.15,152.57C373.81,152.57 371.73,156.11 368.44,160.01C364.41,164.89 356.24,172.45 351.12,172.45C349.41,172.45 348.56,171.35 348.56,169.64C348.56,160 363.44,144.51 376.37,144.51C380.03,144.51 380.64,146.95 380.64,148.05C380.64,149.27 380.27,149.76 380.27,150.61C380.27,151.22 380.76,151.59 381.25,151.59C382.1,151.59 383.81,149.88 383.81,147.44C383.81,144.39 381.37,141.22 375.27,141.22C365.25,141.22 352.99,150.4 347.42,160.03C343.92,163.88 338,169.89 330.25,169.89C324.64,169.89 322.93,163.67 318.78,160.5C329.15,154.52 340.13,149.4 340.13,144.64C340.13,143.91 339.15,142.32 338.3,142.32C337.93,142.32 337.32,142.69 337.2,143.05C332.81,152.08 312.92,156.96 304.14,166.35C304.14,166.35 305.36,163.91 307.92,159.15C324.63,146.34 351.72,123.89 351.72,113.04C351.72,109.87 349.28,107.43 345.38,107.43C332.81,107.43 319.03,128.78 307.32,151.35C305.98,153.9 304.5,156.86 303.06,159.86C300.72,162.4 293.85,169.16 287.31,169.16C285.11,169.16 283.16,167.82 283.16,165.26C283.16,163.43 283.77,161.84 284.62,160.5C286.94,156.72 290.11,152.08 292.55,149.15C293.16,148.42 293.4,148.05 293.4,147.69C293.4,147.08 292.91,145.74 291.33,145.74C290.84,145.74 290.35,146.23 289.5,147.2C287.18,150.01 284.25,154.52 280.35,159.16C274.62,166.11 267.66,173.31 261.93,173.31C259.73,173.31 258.15,171.97 258.15,169.28C258.15,160.25 269.5,147.2 272.42,144.03C273.03,143.42 273.4,142.93 273.4,142.57C273.4,141.84 272.42,140.5 271.2,140.5C268.64,140.5 253.51,159.53 253.51,169.66C253.51,173.69 256.68,176.86 261.32,176.86C268.52,176.86 276.33,168.32 279.25,165.51C279.49,169.78 282.91,172.59 286.94,172.59C291.23,172.59 296.32,169.23 300.14,166.09C297.63,171.57 295.73,176.09 295.73,176.74C295.73,177.59 296.46,178.45 297.44,178.45C298.78,178.45 299.27,176.99 302.93,172.35C305.74,168.81 310.37,165.52 315.62,162.35C319.65,165.64 321.6,173.33 330.14,173.33C335.4,173.33 340.74,169.75 344.87,166.16C344.57,167.36 344.41,168.54 344.41,169.67C344.41,173.82 347.09,176.01 350.75,176.01C356.97,176.01 366,167.71 370.76,162.22C370.76,167.71 374.18,171.86 378.93,171.86C383.44,171.86 389.05,168.2 395.88,160.76C400.88,155.15 403.32,151.12 403.32,151.12C403.56,156.37 407.59,160.15 407.59,166.61C407.59,167.34 407.47,168.07 407.35,168.68C403.81,169.29 400.4,169.29 396.98,169.29C393.2,169.29 390.51,170.75 390.51,174.17C390.51,176.73 393.44,179.54 398.07,179.54C403.44,179.54 408.81,176.12 410.64,170.76C416.13,169.54 422.11,166.86 427.47,160.76C427.47,160.76 428.08,160.03 428.08,159.54C428.09,158.91 427.36,158.18 426.63,158.18ZM345.74,110.84C346.96,110.84 348.18,111.57 348.18,113.04C348.18,122.19 324.03,143.05 309.75,154.03C321.83,132.07 335.98,110.84 345.74,110.84ZM398.2,176.48C395.27,176.48 394.05,175.26 394.05,173.92C394.05,171.48 399.3,172.46 406.37,171.6C404.67,174.52 401.62,176.48 398.2,176.48Z" style="fill:white;fill-rule:nonzero;"/>
        <path d="M542.4,190.75C541.79,190.75 541.55,191.36 541.55,192.09C541.55,195.38 539.96,199.29 531.06,199.29C516.66,199.29 498.24,185.99 481.9,177.45C503,161.59 526.67,129.26 540.7,109.74L543.26,111.33C543.99,111.82 544.48,112.06 544.85,112.06C545.22,112.06 546.07,111.21 546.07,110.72C546.07,110.23 545.58,109.87 545.09,109.5L542.28,107.55L544.6,104.26C545.58,102.92 546.06,102.19 546.06,101.21C546.06,100.48 545.69,99.5 544.47,99.5C543.37,99.5 542.76,99.99 541.3,102.06L538.98,105.35C527.64,98.4 513.85,93.4 500.8,93.4C478.35,93.4 460.18,105.84 460.18,122.19C460.18,132.44 469.45,140 478.24,140C479.46,140 480.31,139.51 480.31,138.9C480.31,138.53 480.07,138.05 478.85,138.05C471.9,138.05 464.82,131.95 464.82,122.68C464.82,107.92 480.68,97.55 501.05,97.55C513.13,97.55 526.3,101.82 537.16,107.8C526.79,122.07 498.85,159.28 477.75,175.51C471.53,172.58 465.67,170.51 460.55,170.51C454.69,170.51 449.69,173.8 449.69,179.17C449.69,182.83 453.35,186.98 460.43,186.98C465.8,186.98 471.9,184.42 478.24,180.15C494.22,188.69 514.11,203.57 530.33,203.57C540.09,203.57 543.87,197.47 543.87,193.2C543.86,191.85 543.25,190.75 542.4,190.75ZM461.52,183.31C456.4,183.31 453.96,181.48 453.96,178.8C453.96,175.87 457.13,174.16 461.04,174.16C464.82,174.16 469.21,175.62 474.22,178.06C469.32,181.35 465.05,183.31 461.52,183.31Z" style="fill:white;fill-rule:nonzero;"/>
        <path d="M660.25,158.18C659.64,158.18 659.03,158.91 659.03,158.91C659.03,158.91 649.51,169.89 640.85,169.89C638.65,169.89 638.04,169.04 638.04,167.57C638.04,161.96 649.51,154.27 649.51,147.93C649.51,144.76 647.56,142.81 644.63,142.81C637.92,142.81 617.43,159.16 608.15,168.79C608.15,168.79 611.32,162.2 613.64,158.91C629.13,146.83 657.56,124.87 657.56,114.26C657.56,110.97 655.12,108.28 651.09,108.28C638.65,108.28 624.13,128.9 612.42,151.34C611.05,153.97 609.62,156.82 608.26,159.57C604.77,163.31 595.79,172.32 584.12,172.32C579.73,172.32 576.92,170 576.92,165.85C576.92,155.72 589,144.75 596.93,144.75C598.76,144.75 599.37,145.85 599.37,146.82C599.37,148.89 597.3,150.24 597.3,150.85C597.3,151.58 597.91,152.31 598.76,152.31C599.61,152.31 602.79,149.75 602.79,146.82C602.79,143.65 599.98,141.57 596.08,141.57C588.37,141.57 577.54,150.12 573.91,159.53C567.87,166.12 563.52,168.66 560.1,168.66C557.42,168.66 555.22,166.83 555.22,162.44C555.22,158.29 557.66,155.36 557.66,154.51C557.66,153.53 556.68,152.56 555.71,152.56C554.37,152.56 552.29,156.1 549,160C544.97,164.88 536.8,172.44 531.68,172.44C529.97,172.44 529.12,171.34 529.12,169.63C529.12,159.99 544,144.5 556.93,144.5C560.59,144.5 561.2,146.94 561.2,148.04C561.2,149.26 560.83,149.75 560.83,150.6C560.83,151.21 561.32,151.58 561.81,151.58C562.66,151.58 564.37,149.87 564.37,147.43C564.37,144.38 561.93,141.21 555.83,141.21C542.41,141.21 524.97,157.68 524.97,169.63C524.97,173.78 527.65,175.97 531.31,175.97C537.53,175.97 546.56,167.67 551.32,162.18C551.32,167.67 554.74,171.82 559.49,171.82C563.15,171.82 567.54,169.41 572.72,164.52C572.69,164.92 572.67,165.32 572.67,165.72C572.67,171.21 576.7,175.48 583.65,175.48C592.12,175.48 599.9,170.51 605.09,166.19C603.16,170.31 601.83,173.43 601.83,174.02C601.83,175.12 602.81,176.09 603.9,176.09C605.73,176.09 606.22,175.24 607.44,173.89C617.44,163.15 638.67,146.56 644.04,146.56C644.41,146.56 645.26,146.68 645.26,147.9C645.26,152.66 633.79,159.98 633.79,167.66C633.79,171.2 636.35,173.27 640.01,173.27C649.65,173.27 660.99,160.7 660.99,160.7C660.99,160.7 661.6,159.97 661.6,159.48C661.59,158.91 660.98,158.18 660.25,158.18ZM651.34,111.7C653.17,111.7 653.9,112.68 653.9,113.9C653.9,122.81 628.4,143.3 615.84,153.18C627.92,129.87 642.32,111.7 651.34,111.7Z" style="fill:white;fill-rule:nonzero;"/>
    </g>
</svg>
